<?xml version="1.0" encoding="UTF-8"?>
<svg version="1.1" xmlns="http://www.w3.org/2000/svg" width="1134" height="1134">
<path d="M0 0 C374.22 0 748.44 0 1134 0 C1134 374.22 1134 748.44 1134 1134 C759.78 1134 385.56 1134 0 1134 C0 759.78 0 385.56 0 0 Z " fill="#FEFEFE" transform="translate(0,0)"/>
<path d="M0 0 C374.22 0 748.44 0 1134 0 C1134 374.22 1134 748.44 1134 1134 C759.78 1134 385.56 1134 0 1134 C0 759.78 0 385.56 0 0 Z M123 61 C122.45972168 61.42748535 121.91944336 61.8549707 121.36279297 62.29541016 C85.43349091 91.02820609 61.81290787 132.05899508 56.64863541 178.01491806 C55.49650807 189.63368599 55.71295172 201.32348523 55.73066217 212.98614997 C55.73396646 216.63149726 55.72561538 220.27682258 55.71884382 223.92216253 C55.70859376 230.29539204 55.70569127 236.66859121 55.70775604 243.04182816 C55.71081909 252.51981468 55.70245333 261.99776788 55.69200679 271.47574791 C55.67270896 289.39311164 55.66704015 307.31046388 55.66589268 325.22783679 C55.66497202 339.06967373 55.66084717 352.91150619 55.65449142 366.75334167 C55.65269622 370.74412584 55.65091659 374.73491001 55.64914167 378.72569418 C55.64869957 379.71794073 55.64825748 380.71018728 55.64780198 381.73250191 C55.63550108 409.62612359 55.62760009 437.51974371 55.62848854 465.41336823 C55.6285197 466.46408648 55.62855086 467.51480474 55.62858296 468.59736295 C55.62874916 473.92229723 55.62894724 479.24723151 55.62915237 484.57216579 C55.62919226 485.62963146 55.62923215 486.68709713 55.62927325 487.77660722 C55.62935413 489.91505883 55.62943772 492.05351044 55.62952404 494.19196206 C55.63074917 527.45253647 55.61574024 560.71307007 55.58837891 593.97363281 C55.55761847 631.38117139 55.54044878 668.78868316 55.54230535 706.19623518 C55.5424546 710.18953419 55.54255202 714.18283319 55.54261398 718.1761322 C55.54263729 719.15931164 55.5426606 720.14249108 55.54268462 721.15546383 C55.54274601 736.93606201 55.53000723 752.71662459 55.51274945 768.49721221 C55.49574703 784.37330158 55.4938551 800.2493392 55.5069681 816.12543267 C55.51432648 825.54048434 55.51079304 834.95537818 55.49108342 844.37041293 C55.47900038 850.67877028 55.48176586 856.98701448 55.49602441 863.29536684 C55.50371797 866.87685656 55.50554461 870.4580431 55.48910971 874.03951031 C55.39357347 896.31372374 56.60094146 918.78591608 64 940 C64.20850586 940.61423828 64.41701172 941.22847656 64.63183594 941.86132812 C68.22217991 952.35617972 72.76952839 962.22720787 78 972 C78.56589844 973.06089844 79.13179687 974.12179687 79.71484375 975.21484375 C86.77579027 987.85809153 96.07051387 998.56011972 106 1009 C106.58007812 1009.63292969 107.16015625 1010.26585937 107.7578125 1010.91796875 C135.56022297 1040.32705118 178.9198961 1057.80244595 218.91967489 1059.094295 C222.07082941 1059.13090238 225.22066105 1059.13845976 228.37202644 1059.13422108 C229.57597413 1059.13657331 230.77992183 1059.13892554 232.02035278 1059.14134905 C235.34582967 1059.14683773 238.67125349 1059.14791486 241.99673116 1059.14707164 C245.62108197 1059.14724217 249.24542435 1059.15315981 252.86977088 1059.1583125 C260.05106991 1059.16760998 267.23236277 1059.17155572 274.41366706 1059.17383147 C283.01889001 1059.17680102 291.62410484 1059.18550284 300.22932352 1059.19424575 C321.02666999 1059.21506092 341.82401785 1059.22555552 362.6213723 1059.23437535 C372.46654464 1059.23858624 382.31171637 1059.24380765 392.1568882 1059.24905988 C425.87980906 1059.26694797 459.60273009 1059.28194231 493.32565498 1059.28938007 C495.44164347 1059.28985483 497.55763196 1059.29033071 499.67362045 1059.29080774 C501.24757619 1059.2911623 501.24757619 1059.2911623 502.85332901 1059.29152403 C508.16930918 1059.29272518 513.48528936 1059.29394065 518.80126953 1059.29516602 C519.85622712 1059.29540617 520.9111847 1059.29564632 521.9981107 1059.29589374 C556.186154 1059.30378297 590.37416256 1059.32720813 624.56219069 1059.35972196 C660.73538276 1059.39406072 696.90855452 1059.41373496 733.08176315 1059.41702431 C737.05689805 1059.41744183 741.03203293 1059.41792139 745.00716782 1059.41844749 C746.47527746 1059.41863228 746.47527746 1059.41863228 747.97304588 1059.4188208 C763.68821104 1059.42114779 779.40333569 1059.43677963 795.11848643 1059.45728934 C810.93155771 1059.47759854 826.7445806 1059.48300062 842.5576625 1059.47351871 C851.93734351 1059.46832352 861.31686279 1059.47408689 870.69652035 1059.49605338 C876.98026696 1059.50964987 883.26390335 1059.50840722 889.54765128 1059.49565142 C893.11603318 1059.48881301 896.68410799 1059.48788087 900.25246133 1059.50521151 C952.80234099 1059.7130438 999.12284186 1044.27408021 1037 1007.375 C1071.41941589 972.80192601 1085.4807776 925.87247745 1085.52564943 878.04019976 C1085.51941776 876.02215814 1085.51072798 874.00413944 1085.50146749 871.98610959 C1085.4892901 868.3321063 1085.50085012 864.67815421 1085.50910914 861.02415037 C1085.5203731 854.64833784 1085.51708564 848.27266867 1085.5037384 841.89686203 C1085.48394572 832.4156364 1085.48740788 822.93451386 1085.495239 813.45327582 C1085.50773758 797.49259661 1085.50150546 781.53197677 1085.48405075 765.57130432 C1085.4667778 749.77290801 1085.45701148 733.97453839 1085.45738602 718.1761322 C1085.45740131 717.19068008 1085.4574166 716.20522795 1085.45743235 715.18991364 C1085.45751418 711.18908979 1085.45764541 707.18826595 1085.45784398 703.1874421 C1085.4596531 665.7145289 1085.4398112 628.24165626 1085.40898465 590.76875713 C1085.38172316 557.506965 1085.36926295 524.24520164 1085.37060547 490.98339844 C1085.37068629 488.84632089 1085.37076701 486.70924334 1085.37084763 484.57216579 C1085.37088833 483.51561122 1085.37092903 482.45905665 1085.37097096 481.37048527 C1085.37117257 476.05144626 1085.37135373 470.73240724 1085.37151146 465.41336823 C1085.3715616 463.83916668 1085.3715616 463.83916668 1085.37161275 462.23316308 C1085.37234361 434.39733791 1085.3632606 406.56151634 1085.35085833 378.72569418 C1085.35019752 377.2398936 1085.35019752 377.2398936 1085.34952335 375.72407684 C1085.34774701 371.74136024 1085.34597018 367.75864364 1085.34414144 363.77592707 C1085.33783225 349.94353685 1085.33480432 336.11114946 1085.33391846 322.27875789 C1085.33272258 304.45597757 1085.32469963 286.63322094 1085.30505554 268.81045073 C1085.2948545 259.39372435 1085.28999713 249.9770327 1085.29304791 240.56030107 C1085.29452327 234.26131435 1085.28866123 227.96236126 1085.27696029 221.66338532 C1085.27049909 218.08089853 1085.26704126 214.49848417 1085.27248149 210.91599399 C1085.29702761 192.99051349 1085.22439083 175.19136956 1080.875 157.6875 C1080.55631958 156.39030029 1080.55631958 156.39030029 1080.23120117 155.06689453 C1068.92423217 111.14778729 1040.67750799 73.36940072 1001.92822266 49.97314453 C980.34331732 37.270023 957.81670022 30.17227998 933 27 C931.70536638 26.8300871 930.41073276 26.6601742 929.07686782 26.48511243 C923.34287452 25.85594737 917.6415614 25.8593673 911.87851334 25.86857224 C910.67736332 25.8665196 909.47621331 25.86446697 908.23866481 25.86235213 C904.91173655 25.85767994 901.58486248 25.8574526 898.25793499 25.85912972 C894.63554856 25.85986332 891.01316928 25.85483203 887.39078593 25.8505547 C880.20927474 25.84298784 873.02777099 25.84078231 865.84625622 25.84022565 C857.24258498 25.8393107 848.63892059 25.83263921 840.0352523 25.82587883 C819.24065205 25.80982914 798.44605255 25.80391651 777.65144722 25.79913008 C767.81006021 25.79679288 757.96867378 25.79319007 748.12728723 25.7894347 C714.42569568 25.77659948 680.72410446 25.76588077 647.02251053 25.7624321 C644.90742216 25.76221047 642.79233379 25.76198868 640.67724542 25.76176675 C638.55710343 25.76154611 636.43696143 25.76132563 634.31681943 25.7611053 C630.06358925 25.76066275 625.81035908 25.76021564 621.55712891 25.75976562 C620.50257735 25.75965623 619.4480258 25.75954684 618.36151814 25.75943414 C584.18065829 25.75580487 549.99981966 25.7398896 515.81896793 25.71657526 C479.66404098 25.69195962 443.50912616 25.67825843 407.35419059 25.67706418 C403.38246647 25.67689273 399.41074236 25.67667731 395.43901825 25.67642975 C394.46109895 25.67637398 393.48317964 25.67631821 392.47562642 25.67626075 C376.76142961 25.67511175 361.04725463 25.66410253 345.33306519 25.64954269 C329.52654514 25.63515099 313.72005298 25.63195576 297.91352817 25.63998267 C288.53304399 25.64442649 279.15265007 25.64062848 269.77217781 25.62474416 C263.49292723 25.61494788 257.21373944 25.61621646 250.93448935 25.62618039 C247.36540005 25.63153917 243.79648323 25.6323916 240.22740868 25.61967167 C197.69394993 25.47769255 157.02686986 33.9348297 123 61 Z " fill="#FEFEFE" transform="translate(0,0)"/>
<path d="M0 0 C0.98600027 0.89926286 1.97044773 1.80023209 2.953125 2.703125 C3.82453125 3.49203125 4.6959375 4.2809375 5.59375 5.09375 C21.66660915 20.35791184 32.3235922 40.11220372 39.953125 60.703125 C40.35402344 61.77820313 40.75492188 62.85328125 41.16796875 63.9609375 C52.11061466 96.25206619 48.58244515 132.39674915 34.00390625 162.90625 C26.18295731 178.46313756 14.83744318 192.11193019 2.390625 204.203125 C-15.0748073 221.39172768 -26.74398872 241.11139024 -27.47265625 266.01171875 C-28.24053072 270.94805464 -30.21991392 273.95347408 -33.80078125 277.3828125 C-39.41559323 281.09368176 -44.42065621 281.94224549 -51.046875 280.703125 C-61.12948552 277.09162759 -66.4395602 272.37140274 -71.15234375 262.92578125 C-76.44841398 249.76654998 -75.51846286 232.73465021 -70.23242188 219.69384766 C-62.4581435 201.97889168 -49.59109637 188.85602669 -35 176.421875 C-15.57159453 159.32487819 -2.32116005 137.78720913 -0.046875 111.703125 C1.63189842 84.10644619 -9.0188095 60.17614965 -26.890625 39.578125 C-41.24308209 24.41326468 -62.7905406 15.79510998 -83.46044922 15.21313477 C-110.49014397 15.11774679 -135.08794624 24.77418767 -154.8125 43.30078125 C-161.2659303 50.02145483 -166.08255468 57.32925724 -170.046875 65.703125 C-170.57667969 66.81171875 -171.10648437 67.9203125 -171.65234375 69.0625 C-179.18351134 88.38616811 -176.52245039 114.12929448 -171.046875 133.703125 C-170.8209668 134.51861816 -170.59505859 135.33411133 -170.36230469 136.17431641 C-165.08127927 154.39632848 -156.56051118 171.57191788 -148.67378235 188.77163696 C-145.93500037 194.74664442 -143.22673279 200.73446319 -140.54296875 206.734375 C-130.94658849 228.18159235 -121.15407275 249.53178666 -111.24047852 270.83413696 C-108.05561073 277.67889329 -104.89186582 284.533193 -101.734375 291.390625 C-96.96089447 301.74822402 -92.14268131 312.08465102 -87.31591797 322.41748047 C-80.06945632 337.93087185 -72.86490651 353.46367707 -65.66552734 368.9989624 C-64.86090838 370.73520022 -64.05622017 372.47140595 -63.25146484 374.20758057 C-61.19384495 378.64708798 -59.13770344 383.08726939 -57.08447266 387.52880859 C-53.47171864 395.3403301 -49.84984719 403.14614623 -46.15234375 410.91796875 C-40.27203297 423.30196752 -34.75125018 435.48280053 -31.046875 448.703125 C-30.71171875 449.77691406 -30.3765625 450.85070312 -30.03125 451.95703125 C-22.53828274 479.71506906 -29.85263808 508.64036428 -43.484375 533.078125 C-46.87687003 538.68908308 -50.83227639 543.69434079 -55.046875 548.703125 C-55.81 549.71375 -56.573125 550.724375 -57.359375 551.765625 C-75.96000948 572.09655105 -103.30120204 582.58473343 -130.4453125 583.81152344 C-158.73285828 584.47113364 -183.41835182 577.50702762 -205.046875 558.703125 C-205.95953125 557.98769531 -205.95953125 557.98769531 -206.890625 557.2578125 C-225.86361607 542.16566051 -237.69309707 516.09164421 -241.359375 492.453125 C-244.44752167 464.21439923 -238.21182256 441.00331547 -226.98364258 415.24145508 C-223.16434756 406.45674827 -219.59798337 397.59226102 -216.13140869 388.66293335 C-208.38664429 368.73516119 -208.38664429 368.73516119 -204.671875 360.515625 C-204.39891602 359.88180908 -204.12595703 359.24799316 -203.84472656 358.5949707 C-200.73577895 351.98060148 -194.80056911 347.28964615 -188.046875 344.703125 C-183.55902706 343.80555541 -181.10028947 345.04196025 -177.359375 347.390625 C-173.83046923 349.74932368 -171.93540849 351.89271737 -170.046875 355.703125 C-169.65869141 358.93847656 -169.65869141 358.93847656 -169.6484375 362.59375 C-169.64420776 363.2511467 -169.63997803 363.9085434 -169.63562012 364.58586121 C-169.62924183 366.70878372 -169.64802986 368.83033981 -169.671875 370.953125 C-169.67652771 371.67654083 -169.68118042 372.39995667 -169.68597412 373.14529419 C-169.8676696 397.12077774 -175.95536587 416.24795973 -186.73217773 437.53515625 C-190.33113401 444.75052534 -192.90155532 451.9358096 -195.046875 459.703125 C-195.27101074 460.43821289 -195.49514648 461.17330078 -195.72607422 461.93066406 C-197.28989161 467.36345094 -197.34508638 472.60256947 -197.296875 478.203125 C-197.30460937 479.10160156 -197.31234375 480.00007812 -197.3203125 480.92578125 C-197.27852762 495.27888732 -191.99763601 508.33116776 -182.046875 518.703125 C-168.05055028 532.11525529 -151.08605069 537.28752487 -132.06396484 537.18896484 C-115.21266328 536.67246143 -100.92543991 530.31840012 -88.609375 518.828125 C-77.77826424 507.11568189 -72.92288402 493.60150785 -72.671875 477.890625 C-72.63449219 477.04564453 -72.59710937 476.20066406 -72.55859375 475.33007812 C-72.3811926 461.97571372 -78.23954638 449.49284153 -83.97528076 437.71057129 C-85.65643699 434.2563367 -87.30113539 430.78465681 -88.953125 427.31640625 C-89.29443451 426.60257782 -89.63574402 425.88874939 -89.98739624 425.15328979 C-93.25512725 418.30661991 -96.38942678 411.40249354 -99.5057373 404.48590088 C-105.79933521 390.52132537 -112.28153676 376.65233075 -118.84228516 362.81152344 C-119.55374398 361.31056254 -120.26517009 359.80958613 -120.9765625 358.30859375 C-121.32365265 357.57629547 -121.6707428 356.84399719 -122.02835083 356.08950806 C-126.91923216 345.7612322 -131.71424472 335.38856784 -136.51269531 325.01708984 C-138.54016671 320.63757094 -140.57347821 316.26077614 -142.60693359 311.8840332 C-150.52571446 294.83950596 -158.42515563 277.78601177 -166.32594299 260.73313904 C-169.56533602 253.74162016 -172.80637949 246.75086747 -176.04798889 239.76037598 C-178.02339607 235.5000961 -179.99801535 231.23945414 -181.97094727 226.97802734 C-182.36008804 226.13751831 -182.74922882 225.29700928 -183.15016174 224.43103027 C-183.93456074 222.73678777 -184.71893377 221.04253324 -185.50328064 219.3482666 C-187.8900596 214.19460476 -190.28378906 209.04423125 -192.68205261 203.89590454 C-217.38610838 150.84978902 -217.38610838 150.84978902 -221.046875 135.703125 C-221.34207031 134.57132813 -221.63726562 133.43953125 -221.94140625 132.2734375 C-226.19863644 112.95066668 -226.16899429 89.79466055 -221.046875 70.703125 C-220.78003906 69.50042969 -220.51320313 68.29773438 -220.23828125 67.05859375 C-215.00964697 44.86594604 -203.32762951 25.40586996 -188.046875 8.703125 C-186.93892578 7.48882812 -186.93892578 7.48882812 -185.80859375 6.25 C-137.2984902 -44.47720151 -51.79511962 -46.23436839 0 0 Z " fill="#010101" transform="translate(656.046875,265.296875)"/>
<path d="M0 0 C0.77182617 0.24669434 1.54365234 0.49338867 2.33886719 0.74755859 C32.26025073 10.52331748 56.41697783 29.64655783 71.01171875 57.75146484 C73.9625556 63.64912926 76.28842018 69.62370006 78 76 C78.35449219 77.13308594 78.70898438 78.26617187 79.07421875 79.43359375 C84.38168569 101.0580214 79.14414515 123.84357693 70.0859375 143.44140625 C56.85140226 172.14479928 51.28407575 202.4903799 56.65820312 233.95605469 C57.03139024 236.18771362 57.35049377 238.4243803 57.671875 240.6640625 C60.04160534 256.09321247 64.60831054 270.79772511 69.1227417 285.69892883 C71.18262579 292.53332233 73.05161871 299.41107265 74.875 306.3125 C76.76415582 313.44937046 78.73654552 320.52264297 80.9765625 327.55859375 C82.7228549 333.43066859 84.19840429 339.37466743 85.72338867 345.30737305 C87.17033631 350.90733649 88.69128531 356.46698471 90.375 362 C93.00962126 370.69511968 95.21644226 379.50055914 97.46081543 388.30227661 C99.56564727 396.54939714 101.7351957 404.76735155 104.125 412.9375 C107.16853228 423.35158846 109.75390086 433.86790144 112.35351562 444.39990234 C114.36197758 452.47774216 116.57996747 460.49756609 118.8125 468.515625 C122.32083787 481.13227785 125.73591486 493.75224432 128.85327148 506.47143555 C130.61902006 513.62113271 132.60044219 520.68772389 134.67138672 527.75415039 C137.24334614 536.63489582 139.44805721 545.60406832 141.64038086 554.58496094 C141.91889893 555.72094727 142.19741699 556.85693359 142.484375 558.02734375 C142.72897461 559.03531006 142.97357422 560.04327637 143.22558594 561.08178711 C143.76593706 563.11798413 144.38846646 565.13335908 145.0715332 567.1262207 C147.5758098 574.87742761 147.3448353 585.34173429 143.875 592.75 C142.46875 595.0390625 142.46875 595.0390625 141 597 C140.5771875 597.56460938 140.154375 598.12921875 139.71875 598.7109375 C136.71200984 601.87500709 133.7715449 602.35109093 129.625 602.5 C121.56882386 602.09555154 115.75719089 599.77691743 110 594 C100.90843901 580.08320479 97.06144203 562.87363989 93.2109375 546.9296875 C92.08839959 542.30034837 90.85252839 537.71017623 89.5625 533.125 C89.35802246 532.39764648 89.15354492 531.67029297 88.94287109 530.92089844 C88.51803541 529.4104447 88.09306515 527.90002882 87.66796875 526.38964844 C86.44527583 522.0154824 85.25502174 517.63246922 84.0625 513.25 C83.81121338 512.32719238 83.55992676 511.40438477 83.30102539 510.45361328 C82.78925906 508.57392834 82.27762228 506.69420811 81.76611328 504.81445312 C80.51251869 500.20915088 79.256138 495.60460902 78 491 C77.49998622 489.16667042 76.99998623 487.33333709 76.5 485.5 C76.2525 484.5925 76.005 483.685 75.75 482.75 C69 458 62.25 433.25 55.5 408.5 C55.25258057 407.59282227 55.00516113 406.68564453 54.75024414 405.75097656 C54.24937527 403.91440304 53.74856162 402.07781445 53.24780273 400.24121094 C52.01154485 395.70732849 50.77438351 391.17369681 49.53515625 386.640625 C46.83678576 376.76573726 44.15772923 366.88590877 41.5 357 C37.35593459 341.5879422 33.1797045 326.18511715 28.88964844 310.81298828 C27.77830949 306.82467284 26.68116136 302.83297086 25.6015625 298.8359375 C22.98355545 289.14939887 20.28303764 279.49738987 17.4375 269.875 C14.52772377 260.01294268 11.92803954 250.1036638 9.515625 240.109375 C8.5833343 236.2954585 7.5795947 232.49939385 6.578125 228.703125 C4.90349325 220.87309007 4.81707778 213.16657123 4.8125 205.1875 C4.80025391 204.07568359 4.78800781 202.96386719 4.77539062 201.81835938 C4.74189806 182.73875973 11.44749475 166.89450142 19.73754883 150.0402832 C23.25026769 142.80440611 26.30578431 135.46981284 29.125 127.9375 C29.50309814 126.93259521 29.88119629 125.92769043 30.27075195 124.89233398 C35.57063913 110.42520767 36.80882406 92.60138899 30.67578125 78.17578125 C21.88273904 61.51204391 9.65164234 50.83300681 -8.4375 45.125 C-28.18310507 39.92543033 -47.37759076 43.18037376 -64.95703125 53.09375 C-76.76401563 60.4901664 -84.92408887 72.01460311 -88.68359375 85.44140625 C-94.63549828 112.98435758 -81.30927352 138.56279551 -69.86157227 162.91650391 C-56.9146059 190.53313016 -58.06382376 215.51658812 -66.52368164 244.390625 C-68.6944451 251.80524858 -70.65015326 259.26495941 -72.5625 266.75 C-74.40693477 273.95430937 -76.26963713 281.13581044 -78.4375 288.25 C-80.87854059 296.26658749 -82.92939346 304.38179023 -85 312.5 C-87.23361147 321.25730182 -89.49990395 329.98692996 -92.13671875 338.6328125 C-94.46887082 346.37555737 -96.40567014 354.22339296 -98.40991211 362.0559082 C-100.21083863 369.05863775 -102.12911746 376.00303032 -104.2265625 382.921875 C-105.82152047 388.2418993 -107.18079681 393.60558384 -108.5 399 C-109.98436234 405.06977624 -111.56217204 411.08252206 -113.375 417.0625 C-115.62482563 424.48980896 -117.57637576 431.98216242 -119.5 439.5 C-121.59585372 447.69093851 -123.77382392 455.83102306 -126.2265625 463.921875 C-127.82152047 469.2418993 -129.18079681 474.60558384 -130.5 480 C-131.98436449 486.06978502 -133.56231424 492.08247541 -135.375 498.0625 C-137.59838623 505.40810658 -139.53435017 512.81549739 -141.4375 520.25 C-144.00319721 530.2626125 -146.71463217 540.21625943 -149.6015625 550.140625 C-150.52783806 553.32985908 -151.41848264 556.52529325 -152.2734375 559.734375 C-161.66932909 594.95129304 -161.66932909 594.95129304 -175 603 C-180.2605845 604.75352817 -186.20958162 605.17898591 -191.39453125 602.98828125 C-196.50667533 599.82994363 -200.19103273 596.89182329 -202 591 C-204.12912634 571.56553278 -197.03687802 551.80256133 -191.92333984 533.34667969 C-190.4219998 527.90501674 -188.96286064 522.45210668 -187.5 517 C-186.91683585 514.83458985 -186.33350232 512.6692253 -185.75 510.50390625 C-184.57989805 506.15846626 -183.41357967 501.81203455 -182.25 497.46484375 C-179.3561692 486.66583544 -176.41668614 475.88337276 -173.375 465.125 C-171.01933746 456.79192489 -168.82442651 448.43708525 -166.77075195 440.02490234 C-165.50506965 434.88634643 -164.09780306 429.81407275 -162.5625 424.75 C-160.48922017 417.90489863 -158.71022342 411.00677978 -157 404.0625 C-154.70903682 394.76050607 -152.2516827 385.52599344 -149.64746094 376.30761719 C-148.45131886 372.04444413 -147.28880104 367.77209426 -146.125 363.5 C-145.87621094 362.58718262 -145.62742187 361.67436523 -145.37109375 360.73388672 C-143.40048616 353.49290412 -141.44862688 346.2469241 -139.5 339 C-136.36090437 327.32573436 -133.19726776 315.65846955 -130 304 C-129.79165527 303.23848633 -129.58331055 302.47697266 -129.36865234 301.69238281 C-126.82079754 292.39056054 -124.16204827 283.12664646 -121.4375 273.875 C-119.0877658 265.89015662 -116.92175361 257.89840613 -114.96875 249.80859375 C-113.71063871 244.86239008 -112.26083443 239.98200619 -110.74951172 235.10766602 C-102.30346119 207.35782739 -107.45790591 182.84753525 -120.640625 157.89453125 C-123.66283957 152.12846397 -126.09142644 146.34055332 -128.1875 140.1875 C-128.42549316 139.50115479 -128.66348633 138.81480957 -128.90869141 138.10766602 C-133.02406225 125.54381663 -134.4753412 113.42059616 -134.3125 100.25 C-134.31572266 98.93128906 -134.31894531 97.61257813 -134.32226562 96.25390625 C-134.26375707 85.56279731 -132.99524259 75.75675773 -129.375 65.6875 C-129.11557617 64.96530273 -128.85615234 64.24310547 -128.58886719 63.49902344 C-118.82186198 37.38863935 -98.90695047 17.37620575 -73.8359375 5.71484375 C-72.55880795 5.13984939 -71.28022746 4.56806341 -70 4 C-68.89914062 3.50628906 -67.79828125 3.01257813 -66.6640625 2.50390625 C-45.80886498 -6.1728858 -21.44833707 -6.96996859 0 0 Z " fill="#010101" transform="translate(877,244)"/>
<path d="M0 0 C3.61682396 0.00330143 7.23362567 -0.00504451 10.85044223 -0.01181835 C17.17523158 -0.02207306 23.49999036 -0.02497007 29.8247872 -0.02290613 C39.23092058 -0.01984424 48.63702036 -0.02820639 58.04314718 -0.03865538 C75.82567222 -0.05795856 93.6081857 -0.06362226 111.39071998 -0.06476949 C125.1305337 -0.0656901 138.87034292 -0.0698147 152.61015517 -0.07617074 C156.57138552 -0.07796596 160.53261588 -0.07974559 164.49384624 -0.0815205 C165.47875153 -0.0819626 166.46365682 -0.08240469 167.47840773 -0.08286019 C195.1687579 -0.09516242 222.8591065 -0.10306196 250.54945952 -0.10217363 C252.114251 -0.10212689 252.114251 -0.10212689 253.71065442 -0.10207921 C258.9974529 -0.10191301 264.28425137 -0.10171493 269.57104984 -0.1015098 C270.62093957 -0.10146991 271.67082929 -0.10143002 272.75253385 -0.10138892 C274.87566688 -0.10130804 276.99879991 -0.10122445 279.12193293 -0.10113813 C312.13398279 -0.09991338 345.14599152 -0.11491438 378.15802962 -0.14228326 C415.28798439 -0.1730538 452.41791215 -0.19021272 489.54788047 -0.18835682 C493.51288309 -0.18820757 497.4778857 -0.18811015 501.44288832 -0.18804819 C502.9072002 -0.18801322 502.9072002 -0.18801322 504.40109413 -0.18797755 C520.06120645 -0.18791619 535.72128286 -0.20064823 551.38138452 -0.21791271 C567.14226658 -0.23492795 582.90309652 -0.23679721 598.66398272 -0.22369407 C608.00730183 -0.21634364 617.35046183 -0.21984484 626.69376383 -0.23957875 C632.95817074 -0.25168291 639.22246388 -0.2488735 645.48686582 -0.23463776 C649.04081069 -0.22696141 652.59445051 -0.22506531 656.14837245 -0.24155246 C680.1497353 -0.33100227 704.64520981 0.71257408 727.32941634 9.26933783 C728.60946426 9.7064676 729.89075521 10.13997166 731.17316634 10.57011908 C747.62266189 16.2246967 762.59942589 24.64575772 776.32941634 35.26933783 C777.25754134 35.97445502 778.18566634 36.67957221 779.14191634 37.40605658 C809.25785956 61.08734333 829.82677431 94.48797362 839.01691634 131.51933783 C839.21954085 132.31565619 839.42216536 133.11197455 839.63093001 133.93242377 C843.77687693 151.48480981 843.62597463 169.33030567 843.59875417 187.25548781 C843.59544988 190.90083509 843.60380096 194.54616041 843.61057252 198.19150036 C843.62082258 204.56472987 843.62372506 210.93792904 843.6216603 217.31116599 C843.61859725 226.78915251 843.62696301 236.26710571 843.63740955 245.74508574 C843.65670738 263.66244947 843.66237619 281.57980171 843.66352366 299.49717462 C843.66444432 313.33901156 843.66856917 327.18084402 843.67492491 341.02267951 C843.67672012 345.01346367 843.67849975 349.00424784 843.68027467 352.99503201 C843.68071677 353.98727856 843.68115886 354.97952511 843.68161435 356.00183974 C843.69391526 383.89546142 843.70181624 411.78908154 843.7009278 439.68270606 C843.70089664 440.73342431 843.70086548 441.78414257 843.70083338 442.86670078 C843.70066718 448.19163506 843.7004691 453.51656934 843.70026397 458.84150362 C843.70020413 460.42770213 843.70020413 460.42770213 843.70014309 462.04594505 C843.70006221 464.18439667 843.69997862 466.32284828 843.6998923 468.46129989 C843.69866717 501.7218743 843.7136761 534.98240791 843.74103743 568.24297064 C843.77179787 605.65050922 843.78896755 643.05802099 843.78711099 680.46557301 C843.78696174 684.45887202 843.78686432 688.45217102 843.78680236 692.44547003 C843.78676739 693.92023919 843.78676739 693.92023919 843.78673172 695.42480166 C843.78667033 711.20539984 843.79940911 726.98596243 843.81666688 742.76655004 C843.8336693 758.64263941 843.83556124 774.51867704 843.82244824 790.3947705 C843.81508986 799.80982217 843.8186233 809.22471601 843.83833292 818.63975076 C843.85041596 824.94810811 843.84765048 831.25635231 843.83339193 837.56470467 C843.82569837 841.14619439 843.82387173 844.72738093 843.84030663 848.30884814 C843.93568145 870.54047192 842.79485523 893.11336054 835.32941634 914.26933783 C834.92747054 915.42562689 834.92747054 915.42562689 834.51740462 916.60527533 C819.51081819 959.32819094 790.07801883 995.27428517 749.00959212 1015.40654486 C736.5359152 1021.2993974 724.08582626 1026.20707489 710.51691634 1028.89433783 C709.53916243 1029.09800971 708.56140853 1029.30168158 707.55402571 1029.51152533 C695.55772487 1031.95304253 683.8028627 1033.57361323 671.54914004 1033.5182268 C670.33753646 1033.52083409 669.12593289 1033.52344137 667.87761405 1033.52612766 C664.54468141 1033.53130236 661.21198062 1033.52763358 657.87906754 1033.52007158 C654.24169815 1033.51405573 650.60434297 1033.51974338 646.96697355 1033.5238924 C640.60198262 1033.52955885 634.23702745 1033.52784486 627.87203795 1033.52120703 C618.40705313 1033.51136368 608.94209432 1033.51302839 599.47710644 1033.51695733 C583.55016819 1033.52322477 567.62324477 1033.52006962 551.6963082 1033.51136321 C535.92428201 1033.50274341 520.15226248 1033.49784318 504.38023383 1033.49803084 C503.39848634 1033.49803848 502.41673885 1033.49804613 501.40524144 1033.49805401 C497.41991091 1033.49809492 493.43458038 1033.49816053 489.44924985 1033.49825982 C452.07715156 1033.49916554 414.70506342 1033.48922627 377.33296865 1033.47383016 C344.13362226 1033.46020349 310.93428308 1033.45396903 277.73493392 1033.45464057 C275.60274271 1033.45468098 273.4705515 1033.45472134 271.33836029 1033.45476164 C269.75718287 1033.45479217 269.75718287 1033.45479217 268.14406247 1033.45482331 C262.83771005 1033.45492411 257.53135763 1033.45501469 252.22500521 1033.45509356 C251.17812953 1033.45511027 250.13125385 1033.45512699 249.05265467 1033.45514421 C221.30457031 1033.4555094 193.55648686 1033.45097056 165.80840326 1033.444767 C164.82132978 1033.44454672 163.8342563 1033.44432645 162.81727151 1033.44409951 C158.84809598 1033.44321129 154.87892046 1033.44232289 150.90974494 1033.44140855 C137.1039375 1033.43824962 123.29813078 1033.43673942 109.49232301 1033.43629706 C91.70294417 1033.43569989 73.91357127 1033.43170387 56.12419496 1033.4218656 C46.71717443 1033.41675282 37.31016262 1033.4143405 27.90314077 1033.41586179 C21.61913917 1033.41659671 15.33514605 1033.41368884 9.05114717 1033.40781798 C5.47127702 1033.40457144 1.89142513 1033.40287696 -1.68844588 1033.40557857 C-5.54825216 1033.4084491 -9.40802703 1033.4035771 -13.26783079 1033.39797228 C-14.37401703 1033.4000276 -15.48020328 1033.40208292 -16.61991033 1033.40420052 C-62.46928168 1033.28240105 -104.20101386 1013.97966112 -136.67058366 982.26933783 C-137.23269548 981.72986517 -137.79480729 981.19039252 -138.3739528 980.63457221 C-161.54172054 958.05054418 -176.23139464 926.7740891 -182.27914653 895.28962081 C-182.65857691 893.33130701 -183.05602942 891.37651183 -183.45405829 889.42189336 C-186.11858877 875.35918152 -186.09665637 861.37918728 -186.04978496 847.11131077 C-186.04117258 843.45866039 -186.05019975 839.80604267 -186.05684912 836.15339398 C-186.06609286 829.76911538 -186.06433089 823.38491576 -186.05511659 817.00063819 C-186.04145214 807.5066889 -186.04510341 798.01279965 -186.05207519 788.5188459 C-186.06397355 771.55809217 -186.0589376 754.59737572 -186.04679692 737.63662407 C-186.03624542 722.7942833 -186.03172338 707.95195522 -186.03309244 693.10961073 C-186.03317647 692.12367743 -186.0332605 691.13774413 -186.03334707 690.12193406 C-186.03369934 686.11935099 -186.03408336 682.11676792 -186.03451265 678.11418486 C-186.03847433 640.59617047 -186.02577561 603.07817849 -186.00498609 565.56017051 C-185.98661634 532.25252727 -185.98080453 498.94490551 -185.98625749 465.63725775 C-185.98660392 463.49832256 -185.98695002 461.35938737 -185.98729578 459.22045218 C-185.98746678 458.16298555 -185.98763777 457.10551893 -185.98781395 456.01600786 C-185.98866754 450.692469 -185.98949132 445.36893013 -185.99028295 440.04539126 C-185.99044003 438.99505799 -185.99059711 437.94472471 -185.99075895 436.86256316 C-185.99475188 409.00161579 -185.98926957 381.14067048 -185.98077166 353.27972436 C-185.97986465 350.28071436 -185.978959 347.28170436 -185.97805643 344.28269437 C-185.97745532 342.2933719 -185.9768467 340.30404944 -185.97623052 338.31472697 C-185.97201468 324.46523627 -185.97142858 310.61574962 -185.97333601 296.76625848 C-185.97578227 278.91629007 -185.97168062 261.06634342 -185.95612601 243.21638094 C-185.94809537 233.78413639 -185.9454597 224.35192804 -185.95076837 214.91968135 C-185.95375704 208.61010519 -185.94940636 202.30056088 -185.93921979 195.99099232 C-185.93362273 192.40233162 -185.93104208 188.81374443 -185.93738637 185.22508328 C-185.96744285 166.64511138 -185.75960079 148.48197223 -181.04558366 130.39433783 C-180.78688493 129.38749945 -180.5281862 128.38066107 -180.26164811 127.34331244 C-174.40038928 105.42527566 -164.5001101 85.22523517 -150.67058366 67.26933783 C-149.96417741 66.33863471 -149.25777116 65.40793158 -148.52995866 64.44902533 C-124.82306637 34.33249179 -91.42414231 13.733743 -54.35808366 4.58183783 C-53.5533864 4.37921332 -52.74868913 4.17658881 -51.9196071 3.96782416 C-34.75044384 -0.07168157 -17.53484965 -0.02680736 0 0 Z M-48.67058366 17.26933783 C-50.08487664 17.58667334 -51.50011679 17.89981258 -52.91620266 18.20904916 C-80.32096101 24.22380563 -104.65929288 38.93963052 -124.67058366 58.26933783 C-125.59613054 59.13172064 -126.52167741 59.99410346 -127.47527116 60.88261908 C-154.31713659 86.54587568 -171.20702597 125.39147786 -172.12098674 162.42387947 C-172.1923022 168.26341901 -172.19364556 174.10154699 -172.16584979 179.94127717 C-172.15282213 183.63380078 -172.16342499 187.32627685 -172.1708256 191.01880574 C-172.18059018 197.46989247 -172.17570984 203.92083416 -172.16086381 210.37190932 C-172.13884895 219.96492485 -172.14002773 229.55784305 -172.14569809 239.15087721 C-172.15457498 255.29661512 -172.14479743 271.4422908 -172.12406915 287.58801573 C-172.10358151 303.57196417 -172.09101256 319.55588567 -172.08903116 335.53984755 C-172.08890132 336.5359283 -172.08877149 337.53200905 -172.08863772 338.55827406 C-172.08813774 342.60202808 -172.08769778 346.64578209 -172.08733563 350.68953611 C-172.08403645 387.50269452 -172.06172133 424.31581551 -172.02727311 461.12895697 C-171.99478892 495.86007821 -171.97353688 530.59118056 -171.96574968 565.32231635 C-171.96550664 566.39280572 -171.96526359 567.4632951 -171.96501319 568.56622355 C-171.96379108 573.95825034 -171.96258776 579.35027714 -171.9613914 584.74230394 C-171.96115513 585.80638872 -171.96091886 586.8704735 -171.96067543 587.96680327 C-171.96020125 590.11255832 -171.95973109 592.25831336 -171.95926497 594.40406841 C-171.95178859 628.58603446 -171.93601504 662.76799705 -171.91806579 696.94995905 C-171.91282476 706.95014253 -171.90788067 716.95032597 -171.90370386 726.95050996 C-171.89481802 747.97318397 -171.88314462 768.99584933 -171.86213783 790.01851516 C-171.8535144 798.71081481 -171.84633674 807.40310873 -171.84362214 816.09541243 C-171.84136376 823.30407993 -171.83578102 830.51273478 -171.82571214 837.72139578 C-171.82073833 841.34786787 -171.81727425 844.9743231 -171.81818197 848.6007989 C-171.81911383 852.51561408 -171.81230855 856.43039502 -171.80480474 860.34520358 C-171.80628836 861.45915565 -171.80777199 862.57310773 -171.80930057 863.72081592 C-171.68071925 905.35697047 -156.15803435 942.10325054 -127.67058366 972.26933783 C-126.9371071 973.06726752 -126.20363054 973.86519721 -125.44792741 974.68730658 C-114.04423827 986.66213208 -100.38150724 995.85483787 -85.67058366 1003.26933783 C-84.97771257 1003.6198017 -84.28484147 1003.97026557 -83.57097429 1004.33134955 C-74.82240459 1008.67161663 -65.95253005 1012.01729792 -56.54558366 1014.64433783 C-55.27787126 1015.00241522 -55.27787126 1015.00241522 -53.98454851 1015.3677265 C-37.11660089 1019.79528253 -20.10521589 1019.56101902 -2.79707405 1019.52627294 C0.86703702 1019.52115562 4.53113144 1019.5277366 8.19524008 1019.5327596 C14.60422643 1019.53995388 21.01317903 1019.53978184 27.42216689 1019.53466528 C36.95281187 1019.52707739 46.48342856 1019.53097968 56.01407338 1019.5370819 C73.03915645 1019.54759738 90.06422449 1019.54670698 107.08930898 1019.54092407 C121.98845852 1019.53588828 136.88760255 1019.53458174 151.78675276 1019.53696936 C152.77595523 1019.53712213 153.76515769 1019.5372749 154.78433599 1019.5374323 C158.80006938 1019.538055 162.81580277 1019.53869181 166.83153616 1019.53935183 C204.48404265 1019.54546659 242.13653958 1019.53992805 279.78904459 1019.52915804 C313.22373092 1019.51966719 346.65840202 1019.52051646 380.09308821 1019.53008002 C417.67777115 1019.54079476 455.26244564 1019.54503289 492.84712989 1019.53885549 C496.85544656 1019.53821408 500.86376324 1019.5375884 504.87207991 1019.53696936 C505.85899288 1019.53681121 506.84590585 1019.53665305 507.86272528 1019.53649011 C522.75065212 1019.53421742 537.63857286 1019.53687149 552.52649886 1019.54192847 C569.45873107 1019.54765124 586.39094592 1019.54620824 603.32317597 1019.53536698 C612.79359756 1019.52950296 622.26398154 1019.52909871 631.73440213 1019.53665933 C638.06697694 1019.54115633 644.39952171 1019.53833091 650.73209208 1019.52964979 C654.33558412 1019.52491024 657.93900166 1019.52322775 661.54249126 1019.53046176 C682.01908372 1019.58366199 682.01908372 1019.58366199 702.32941634 1017.26933783 C703.14259511 1017.13506896 703.95577387 1017.00080009 704.79359442 1016.86246246 C733.9960856 1011.582852 760.80290028 996.10449644 781.90558821 975.64189642 C783.15966241 974.43297922 784.43808827 973.24943211 785.72004134 972.07011908 C804.31216085 954.51461055 818.28065176 929.04740961 824.32941634 904.26933783 C824.56869856 903.31414252 824.56869856 903.31414252 824.81281478 902.33965033 C825.36921527 900.11002374 825.91435262 897.87797613 826.45441634 895.64433783 C826.71110091 894.58642035 826.71110091 894.58642035 826.97297103 893.5071308 C827.1344261 892.8176435 827.29588118 892.12815619 827.46222884 891.41777533 C827.60547591 890.81111029 827.74872298 890.20444525 827.89631087 889.57939642 C829.31358129 882.02008825 829.47362796 874.6619648 829.46363742 866.98978633 C829.46598965 865.75939943 829.46834188 864.52901253 829.47076539 863.26134118 C829.47627312 859.84775499 829.47732897 856.43422032 829.47648798 853.02063329 C829.47665796 849.30604422 829.48256954 845.59146349 829.48772884 841.87687862 C829.49704313 834.50997682 829.50097491 827.14308103 829.5032478 819.77617408 C829.50621296 810.95141615 829.51491226 802.12666616 829.52366208 793.30191241 C829.54449556 771.97152041 829.55497489 750.64112704 829.56379169 729.31072724 C829.56800011 719.21644281 829.57322186 709.12215898 829.57847622 699.02787506 C829.59636621 664.46300276 829.61136115 629.89813028 829.61879641 595.33325404 C829.61927117 593.16366857 829.61974706 590.99408311 829.62022407 588.82449765 C829.62046045 587.74859529 829.62069683 586.67269294 829.62094037 585.56418748 C829.62214154 580.11328382 829.623357 574.66238016 829.62458235 569.2114765 C829.62494258 567.58886409 829.62494258 567.58886409 829.62531008 565.93347163 C829.63320032 530.87288973 829.65662658 495.81234169 829.6891383 460.75177456 C829.72346128 423.67011247 829.74314987 386.58847018 829.74644065 349.50679195 C829.74685818 345.43338487 829.74733774 341.3599778 829.74786383 337.28657073 C829.74798702 336.28360821 829.74811022 335.2806457 829.74823714 334.24729038 C829.75056616 318.12855312 829.76620952 302.00985527 829.78670568 285.89113204 C829.8069944 269.67785006 829.81242659 253.46461528 829.80293505 237.25132296 C829.79773184 227.62864332 829.80354158 218.00612115 829.82546972 208.38346427 C829.8390329 201.94274049 829.83785239 195.50212443 829.82506776 189.06139944 C829.81820759 185.40002792 829.81737445 181.73895619 829.83462785 178.07761214 C829.92145353 158.4577773 828.7831162 139.58449809 822.32941634 120.89433783 C822.04235823 120.05185492 821.75530013 119.20937201 821.45954329 118.34135932 C813.65476586 96.57223975 801.29690262 77.79985254 785.32941634 61.26933783 C784.46703353 60.34379096 783.60465071 59.41824408 782.71613509 58.46465033 C758.06576594 32.68219015 719.98006223 15.30002181 684.38031868 14.17624357 C681.17851893 14.13955043 677.97808326 14.13285874 674.77607638 14.13791007 C673.55254858 14.13585743 672.32902079 14.1338048 671.06841639 14.13168996 C667.68808646 14.12702701 664.30781 14.12678789 660.92748086 14.12846755 C657.24380322 14.12920248 653.56013255 14.12416679 649.87645793 14.11989254 C642.57756337 14.11233361 635.27867612 14.11012055 627.97977804 14.10956348 C619.23424212 14.10864777 610.48871293 14.10197419 601.74317991 14.09521666 C580.61050652 14.07917699 559.47783386 14.07325605 538.34515548 14.06846791 C528.34549347 14.06613031 518.34583204 14.06252752 508.34617049 14.05877253 C474.10609351 14.04593993 439.86601685 14.03521963 405.62593753 14.03176993 C403.47768623 14.0315483 401.32943494 14.03132651 399.18118365 14.03110458 C397.02780375 14.03088394 394.87442385 14.03066346 392.72104395 14.03044313 C388.40112967 14.03000058 384.08121539 14.02955347 379.7613011 14.02910346 C378.69021826 14.02899407 377.61913541 14.02888467 376.51559551 14.02877197 C341.77963312 14.02514071 307.04369158 14.00921654 272.30773718 13.98591309 C235.56888573 13.96131106 198.83004621 13.94759696 162.09118629 13.94640201 C158.05751532 13.94623056 154.02384436 13.94601513 149.9901734 13.94576758 C148.99699533 13.94571181 148.00381726 13.94565604 146.98054288 13.94559858 C131.00697508 13.9444486 115.03342872 13.93343125 99.05986816 13.91888052 C83.00275236 13.90450665 66.945664 13.90128362 50.88854353 13.9093205 C41.35369519 13.91377221 31.81893555 13.90993443 22.28409889 13.894082 C15.90840617 13.88431366 9.53277542 13.88552791 3.15708323 13.89551822 C-0.4711544 13.90089681 -4.09922202 13.90166411 -7.72744538 13.8890095 C-21.70741521 13.84332292 -35.05421956 13.85710639 -48.67058366 17.26933783 Z " fill="#1E1C18" transform="translate(241.67058366164565,25.73066216893494)"/>
<path d="M0 0 C2.32080423 0.94364818 4.64895019 1.80127036 7.01611328 2.62011719 C26.19251244 9.28908087 42.83030564 18.93819069 57.54345703 33.03417969 C58.29111328 33.71867187 59.03876953 34.40316406 59.80908203 35.10839844 C84.23425648 58.20983091 98.47378121 95.59828581 99.68188477 128.84350586 C99.7799372 132.51672993 99.81942836 136.1888698 99.83862305 139.86328125 C99.85009865 141.38323305 99.8704801 142.90314597 99.90014648 144.42285156 C100.44047759 172.26650566 89.55737838 198.96978453 71.54345703 220.03417969 C70.88192627 220.81317627 70.88192627 220.81317627 70.20703125 221.60791016 C63.94705931 228.90105945 57.16441671 235.15990654 49.54345703 241.03417969 C48.54701172 241.8346875 47.55056641 242.63519531 46.52392578 243.45996094 C40.18659022 248.5140231 33.64275615 252.92312052 26.71899414 257.13232422 C6.41595434 269.62312332 -12.77212261 285.03881348 -18.89404297 309.15917969 C-20.22242769 313.69999805 -23.17165074 315.47061066 -27.10498047 317.84277344 C-31.6726204 320.15694317 -35.27867208 321.74486785 -40.45654297 321.03417969 C-43.33131493 319.6400017 -45.87197499 317.90397736 -48.45654297 316.03417969 C-49.50841797 315.29167969 -50.56029297 314.54917969 -51.64404297 313.78417969 C-59.17050713 306.42497029 -61.44884996 297.46785611 -61.76904297 287.22167969 C-61.37103296 270.63094682 -53.78301604 256.91849297 -42.75341797 245.01074219 C-34.25520379 236.96992686 -24.64122529 231.23400716 -14.20654297 226.09667969 C14.49722111 211.60071331 37.97974564 194.21497614 48.98095703 162.59667969 C51.68546197 154.03894665 52.89082817 145.67816023 52.79345703 136.72167969 C52.78596436 135.80306152 52.77847168 134.88444336 52.77075195 133.93798828 C52.38201023 109.2539746 43.43814587 87.30248112 26.20751953 69.63964844 C14.22863672 58.2616481 -0.53817681 51.08336663 -16.45654297 47.03417969 C-17.23642578 46.82792969 -18.01630859 46.62167969 -18.81982422 46.40917969 C-41.06606323 41.42712927 -66.272531 46.04101963 -85.45654297 58.15917969 C-106.45721344 72.02364342 -120.59460365 90.39662284 -126.45654297 115.03417969 C-126.81232422 116.26265625 -127.16810547 117.49113281 -127.53466797 118.75683594 C-131.00901992 132.74954598 -128.97485148 148.55308274 -124.45654297 162.03417969 C-124.08271484 163.15953125 -123.70888672 164.28488281 -123.32373047 165.44433594 C-119.74841368 175.37708689 -114.80211475 184.53375253 -109.01904297 193.34667969 C-102.68394383 203.1902306 -97.70107164 213.46036598 -94.08154297 224.59667969 C-93.84298584 225.3146875 -93.60442871 226.03269531 -93.35864258 226.77246094 C-88.41524519 242.89433228 -89.15946572 259.75442834 -89.18043458 276.42202187 C-89.18292406 280.13590712 -89.17386024 283.84976827 -89.16639709 287.56364441 C-89.15370814 294.82177494 -89.1518492 302.07986837 -89.15419736 309.33800812 C-89.1559876 315.24517807 -89.15421581 321.15233685 -89.14997292 327.05950546 C-89.14937773 327.90344583 -89.14878254 328.7473862 -89.14816931 329.61690053 C-89.14695743 331.33195616 -89.14574329 333.04701179 -89.14452694 334.76206742 C-89.13367325 350.81356448 -89.13580328 366.86504048 -89.14191178 382.9165387 C-89.14707612 397.55780702 -89.13583438 412.19900871 -89.11681356 426.84026386 C-89.09737704 441.91860188 -89.0891895 456.99690848 -89.09293681 472.07525909 C-89.09484044 480.52258808 -89.09244402 488.96986043 -89.07822227 497.41717911 C-89.0662329 504.61064097 -89.06498717 511.80401133 -89.07701244 518.99747463 C-89.08284934 522.65787155 -89.0841473 526.31810178 -89.07201004 529.97848701 C-88.90059811 585.45830274 -88.90059811 585.45830274 -101.70654297 602.34667969 C-108.91673582 609.39300452 -116.2971942 612.3927109 -126.26904297 612.40917969 C-127.03796875 612.43367187 -127.80689453 612.45816406 -128.59912109 612.48339844 C-137.80209409 612.52999577 -143.95241073 608.24061315 -150.53466797 602.11230469 C-154.07655801 598.28245611 -155.23960878 594.9504317 -155.83154297 589.72167969 C-154.90770064 580.63723014 -152.32836063 575.45579658 -146.22827148 568.56884766 C-137.27558754 558.29355212 -133.97161624 544.82639644 -134.08905029 531.44247437 C-134.08578145 530.43547127 -134.08251261 529.42846818 -134.07914472 528.39094985 C-134.07191525 525.04709664 -134.08597307 521.70368913 -134.10009766 518.35986328 C-134.09930595 515.94876023 -134.09720612 513.53765731 -134.09390259 511.1265564 C-134.08931091 505.27018684 -134.09855123 499.41393662 -134.11419055 493.5575953 C-134.13184092 486.70408497 -134.13315237 479.85059928 -134.13380614 472.99706979 C-134.13549239 460.73320722 -134.15127191 448.46940387 -134.17529297 436.20556641 C-134.19843666 424.38069162 -134.21270253 412.55585429 -134.21630859 400.73095703 C-134.21653136 400.0057564 -134.21675413 399.28055577 -134.21698365 398.53337936 C-134.21742634 397.07183006 -134.21786837 395.61028075 -134.21830972 394.14873145 C-134.21863906 393.06651648 -134.21863906 393.06651648 -134.21897507 391.96243858 C-134.21919105 391.24246589 -134.21940704 390.5224932 -134.21962957 389.78070315 C-134.2233666 378.42452726 -134.2347334 367.06835719 -134.24710546 355.71218788 C-134.25148806 351.63725858 -134.25495895 347.56232983 -134.25771634 343.48739912 C-134.26972093 326.3358914 -134.31487377 309.18515015 -134.45654297 292.03417969 C-134.46358812 291.12010629 -134.47063328 290.20603289 -134.47789192 289.26426029 C-134.51725999 284.50008397 -134.57737972 279.73726102 -134.67870951 274.97397923 C-134.71676433 273.06318606 -134.7387385 271.15209184 -134.75959396 269.24103355 C-135.10675156 256.60346381 -138.5045499 244.58412415 -143.08154297 232.84667969 C-143.44779785 231.88874512 -143.81405273 230.93081055 -144.19140625 229.94384766 C-145.59577864 226.30038212 -147.02289937 222.66619356 -148.45654297 219.03417969 C-148.77421631 218.2286969 -149.09188965 217.42321411 -149.41918945 216.59332275 C-151.65103656 210.93910836 -153.89395865 205.28937556 -156.14404297 199.64239502 C-156.9367394 197.65099783 -157.72775123 195.65892926 -158.51708984 193.66619873 C-163.97009824 179.86190168 -163.97009824 179.86190168 -170.06591797 166.33496094 C-180.6055745 144.30789581 -179.97069106 123.0127764 -172.45654297 100.03417969 C-171.95515727 98.38967393 -171.45385639 96.74514231 -170.95263672 95.10058594 C-159.77963317 59.82394673 -136.46830273 29.09885748 -103.43896484 11.71948242 C-100.15203087 10.06508597 -96.81534729 8.53611078 -93.45654297 7.03417969 C-92.80814453 6.73705078 -92.15974609 6.43992188 -91.49169922 6.13378906 C-86.55356579 3.88962743 -81.5444496 1.91149153 -76.45654297 0.03417969 C-75.60157227 -0.2903418 -74.74660156 -0.61486328 -73.86572266 -0.94921875 C-49.10682144 -10.09982517 -24.41697751 -10.03774863 0 0 Z " fill="#010101" transform="translate(289.45654296875,235.9658203125)"/>
</svg>
